<svg width="328" height="384" viewBox="0 0 328 384" fill="none" xmlns="http://www.w3.org/2000/svg">
<rect width="328" height="384" rx="24" fill="#1F1F1F"/>
<path d="M68.1654 35.928L64.6134 42.824V47H62.2614V42.84L58.7094 35.928H61.2854L63.4934 40.952L65.6854 35.928H68.1654ZM71.7583 38.264C73.0276 38.264 74.0196 38.664 74.7343 39.464C75.449 40.2533 75.8063 41.352 75.8063 42.76C75.8063 43.656 75.641 44.4453 75.3103 45.128C74.9903 45.8 74.521 46.3227 73.9023 46.696C73.2943 47.0693 72.5743 47.256 71.7423 47.256C70.473 47.256 69.4756 46.8613 68.7503 46.072C68.0356 45.272 67.6783 44.168 67.6783 42.76C67.6783 41.864 67.8383 41.08 68.1583 40.408C68.489 39.7253 68.9583 39.1973 69.5663 38.824C70.185 38.4507 70.9156 38.264 71.7583 38.264ZM71.7583 39.96C71.1823 39.96 70.7503 40.1893 70.4623 40.648C70.185 41.096 70.0463 41.8 70.0463 42.76C70.0463 43.72 70.185 44.4293 70.4623 44.888C70.7503 45.336 71.177 45.56 71.7423 45.56C72.3076 45.56 72.729 45.336 73.0063 44.888C73.2943 44.4293 73.4383 43.72 73.4383 42.76C73.4383 41.8 73.2996 41.096 73.0223 40.648C72.745 40.1893 72.3236 39.96 71.7583 39.96ZM84.4781 47H82.5101L82.3981 45.864C82.0994 46.3333 81.7367 46.6853 81.3101 46.92C80.8834 47.144 80.3874 47.256 79.8221 47.256C79.0541 47.256 78.4674 47.0267 78.0621 46.568C77.6567 46.0987 77.4541 45.448 77.4541 44.616V38.52H79.7261V44.328C79.7261 44.776 79.8007 45.096 79.9501 45.288C80.0994 45.4693 80.3341 45.56 80.6541 45.56C81.2621 45.56 81.7794 45.192 82.2061 44.456V38.52H84.4781V47ZM95.3638 38.264C96.0998 38.264 96.6758 38.4933 97.0918 38.952C97.5185 39.4 97.7318 40.024 97.7318 40.824V47H95.4598V41.208C95.4598 40.7493 95.3798 40.4293 95.2198 40.248C95.0598 40.056 94.8305 39.96 94.5318 39.96C93.9345 39.96 93.3905 40.3493 92.8998 41.128V47H90.6278V35.144L92.8998 34.904V39.48C93.2411 39.0747 93.6091 38.7707 94.0038 38.568C94.4091 38.3653 94.8625 38.264 95.3638 38.264ZM106.373 44.648C106.373 44.9787 106.421 45.224 106.517 45.384C106.613 45.5333 106.773 45.6453 106.997 45.72L106.517 47.224C106.016 47.1813 105.605 47.064 105.285 46.872C104.976 46.68 104.736 46.3813 104.565 45.976C104.011 46.8293 103.163 47.256 102.021 47.256C101.179 47.256 100.507 47.016 100.005 46.536C99.5148 46.0453 99.2694 45.4107 99.2694 44.632C99.2694 43.704 99.6054 42.9947 100.277 42.504C100.949 42.0133 101.915 41.768 103.173 41.768H104.149V41.352C104.149 40.8293 104.032 40.4667 103.797 40.264C103.563 40.0613 103.173 39.96 102.629 39.96C102.032 39.96 101.285 40.1093 100.389 40.408L99.8774 38.888C100.933 38.472 101.979 38.264 103.013 38.264C104.165 38.264 105.013 38.5147 105.557 39.016C106.101 39.5067 106.373 40.2427 106.373 41.224V44.648ZM102.645 45.624C103.285 45.624 103.787 45.3093 104.149 44.68V43.064H103.397C102.171 43.064 101.557 43.5227 101.557 44.44C101.557 44.8133 101.648 45.1067 101.829 45.32C102.021 45.5227 102.293 45.624 102.645 45.624ZM115.449 38.52L112.729 47H110.025L107.257 38.52H109.721L111.401 45.224L113.113 38.52H115.449ZM123.593 42.568C123.593 42.6747 123.577 42.968 123.545 43.448H118.249C118.323 44.216 118.531 44.76 118.873 45.08C119.214 45.4 119.678 45.56 120.265 45.56C120.627 45.56 120.969 45.5013 121.289 45.384C121.609 45.2667 121.955 45.08 122.329 44.824L123.273 46.104C122.323 46.872 121.251 47.256 120.057 47.256C118.723 47.256 117.699 46.856 116.985 46.056C116.27 45.256 115.913 44.1733 115.913 42.808C115.913 41.944 116.062 41.1707 116.361 40.488C116.67 39.7947 117.113 39.2507 117.689 38.856C118.275 38.4613 118.969 38.264 119.769 38.264C120.974 38.264 121.913 38.6427 122.585 39.4C123.257 40.1573 123.593 41.2133 123.593 42.568ZM121.337 41.928C121.337 40.52 120.83 39.816 119.817 39.816C119.347 39.816 118.979 39.992 118.713 40.344C118.457 40.6853 118.302 41.2453 118.249 42.024H121.337V41.928ZM134.215 46.6C133.906 46.8133 133.554 46.9733 133.159 47.08C132.775 47.1973 132.391 47.256 132.007 47.256C131.133 47.2453 130.471 46.9947 130.023 46.504C129.575 46.0133 129.351 45.2933 129.351 44.344V40.12H128.087V38.52H129.351V36.664L131.623 36.392V38.52H133.575L133.351 40.12H131.623V44.296C131.623 44.7013 131.693 44.9947 131.831 45.176C131.97 45.3573 132.183 45.448 132.471 45.448C132.759 45.448 133.079 45.352 133.431 45.16L134.215 46.6ZM145.83 38.52L144.022 47H141.254L140.038 40.552L138.822 47H136.086L134.23 38.52H136.518L137.558 45.32L138.966 38.52H141.238L142.502 45.32L143.654 38.52H145.83ZM150.649 38.264C151.918 38.264 152.91 38.664 153.625 39.464C154.34 40.2533 154.697 41.352 154.697 42.76C154.697 43.656 154.532 44.4453 154.201 45.128C153.881 45.8 153.412 46.3227 152.793 46.696C152.185 47.0693 151.465 47.256 150.633 47.256C149.364 47.256 148.366 46.8613 147.641 46.072C146.926 45.272 146.569 44.168 146.569 42.76C146.569 41.864 146.729 41.08 147.049 40.408C147.38 39.7253 147.849 39.1973 148.457 38.824C149.076 38.4507 149.806 38.264 150.649 38.264ZM150.649 39.96C150.073 39.96 149.641 40.1893 149.353 40.648C149.076 41.096 148.937 41.8 148.937 42.76C148.937 43.72 149.076 44.4293 149.353 44.888C149.641 45.336 150.068 45.56 150.633 45.56C151.198 45.56 151.62 45.336 151.897 44.888C152.185 44.4293 152.329 43.72 152.329 42.76C152.329 41.8 152.19 41.096 151.913 40.648C151.636 40.1893 151.214 39.96 150.649 39.96ZM163.867 38.264C164.432 38.264 164.939 38.3493 165.387 38.52C165.846 38.68 166.278 38.936 166.683 39.288L165.691 40.632C165.414 40.4187 165.142 40.264 164.875 40.168C164.619 40.072 164.336 40.024 164.027 40.024C162.822 40.024 162.219 40.952 162.219 42.808C162.219 43.7467 162.374 44.4187 162.683 44.824C162.992 45.2293 163.435 45.432 164.011 45.432C164.31 45.432 164.582 45.3893 164.827 45.304C165.072 45.208 165.36 45.0533 165.691 44.84L166.683 46.264C165.872 46.9253 164.944 47.256 163.899 47.256C163.067 47.256 162.342 47.0747 161.723 46.712C161.115 46.3493 160.646 45.8373 160.315 45.176C159.984 44.504 159.819 43.72 159.819 42.824C159.819 41.928 159.984 41.1387 160.315 40.456C160.646 39.7627 161.115 39.224 161.723 38.84C162.342 38.456 163.056 38.264 163.867 38.264ZM172.708 38.264C173.444 38.264 174.02 38.4933 174.436 38.952C174.862 39.4 175.076 40.024 175.076 40.824V47H172.804V41.208C172.804 40.7493 172.724 40.4293 172.564 40.248C172.404 40.056 172.174 39.96 171.876 39.96C171.278 39.96 170.734 40.3493 170.244 41.128V47H167.972V35.144L170.244 34.904V39.48C170.585 39.0747 170.953 38.7707 171.348 38.568C171.753 38.3653 172.206 38.264 172.708 38.264ZM183.717 44.648C183.717 44.9787 183.765 45.224 183.861 45.384C183.957 45.5333 184.117 45.6453 184.341 45.72L183.861 47.224C183.36 47.1813 182.949 47.064 182.629 46.872C182.32 46.68 182.08 46.3813 181.909 45.976C181.355 46.8293 180.507 47.256 179.365 47.256C178.523 47.256 177.851 47.016 177.349 46.536C176.859 46.0453 176.613 45.4107 176.613 44.632C176.613 43.704 176.949 42.9947 177.621 42.504C178.293 42.0133 179.259 41.768 180.517 41.768H181.493V41.352C181.493 40.8293 181.376 40.4667 181.141 40.264C180.907 40.0613 180.517 39.96 179.973 39.96C179.376 39.96 178.629 40.1093 177.733 40.408L177.221 38.888C178.277 38.472 179.323 38.264 180.357 38.264C181.509 38.264 182.357 38.5147 182.901 39.016C183.445 39.5067 183.717 40.2427 183.717 41.224V44.648ZM179.989 45.624C180.629 45.624 181.131 45.3093 181.493 44.68V43.064H180.741C179.515 43.064 178.901 43.5227 178.901 44.44C178.901 44.8133 178.992 45.1067 179.173 45.32C179.365 45.5227 179.637 45.624 179.989 45.624ZM190.723 38.264C191.47 38.264 192.051 38.4933 192.467 38.952C192.883 39.4 193.091 40.024 193.091 40.824V47H190.819V41.208C190.819 40.7493 190.739 40.4293 190.579 40.248C190.43 40.056 190.201 39.96 189.891 39.96C189.571 39.96 189.278 40.0613 189.011 40.264C188.755 40.456 188.505 40.7493 188.259 41.144V47H185.987V38.52H187.955L188.131 39.592C188.483 39.1547 188.867 38.824 189.283 38.6C189.71 38.376 190.19 38.264 190.723 38.264ZM198.789 38.264C199.354 38.264 199.861 38.3493 200.309 38.52C200.767 38.68 201.199 38.936 201.605 39.288L200.613 40.632C200.335 40.4187 200.063 40.264 199.797 40.168C199.541 40.072 199.258 40.024 198.949 40.024C197.743 40.024 197.141 40.952 197.141 42.808C197.141 43.7467 197.295 44.4187 197.605 44.824C197.914 45.2293 198.357 45.432 198.933 45.432C199.231 45.432 199.503 45.3893 199.749 45.304C199.994 45.208 200.282 45.0533 200.613 44.84L201.605 46.264C200.794 46.9253 199.866 47.256 198.821 47.256C197.989 47.256 197.263 47.0747 196.645 46.712C196.037 46.3493 195.567 45.8373 195.237 45.176C194.906 44.504 194.741 43.72 194.741 42.824C194.741 41.928 194.906 41.1387 195.237 40.456C195.567 39.7627 196.037 39.224 196.645 38.84C197.263 38.456 197.978 38.264 198.789 38.264ZM209.749 42.568C209.749 42.6747 209.733 42.968 209.701 43.448H204.405C204.48 44.216 204.688 44.76 205.029 45.08C205.37 45.4 205.834 45.56 206.421 45.56C206.784 45.56 207.125 45.5013 207.445 45.384C207.765 45.2667 208.112 45.08 208.485 44.824L209.429 46.104C208.48 46.872 207.408 47.256 206.213 47.256C204.88 47.256 203.856 46.856 203.141 46.056C202.426 45.256 202.069 44.1733 202.069 42.808C202.069 41.944 202.218 41.1707 202.517 40.488C202.826 39.7947 203.269 39.2507 203.845 38.856C204.432 38.4613 205.125 38.264 205.925 38.264C207.13 38.264 208.069 38.6427 208.741 39.4C209.413 40.1573 209.749 41.2133 209.749 42.568ZM207.493 41.928C207.493 40.52 206.986 39.816 205.973 39.816C205.504 39.816 205.136 39.992 204.869 40.344C204.613 40.6853 204.458 41.2453 204.405 42.024H207.493V41.928ZM214.209 38.264C215.404 38.264 216.428 38.6053 217.281 39.288L216.417 40.584C215.703 40.136 214.999 39.912 214.305 39.912C213.932 39.912 213.644 39.9813 213.441 40.12C213.239 40.2587 213.137 40.4453 213.137 40.68C213.137 40.8507 213.18 40.9947 213.265 41.112C213.361 41.2293 213.532 41.3413 213.777 41.448C214.033 41.5547 214.412 41.6827 214.913 41.832C215.809 42.0773 216.476 42.408 216.913 42.824C217.351 43.2293 217.569 43.7893 217.569 44.504C217.569 45.0693 217.404 45.56 217.073 45.976C216.753 46.392 216.316 46.712 215.761 46.936C215.207 47.1493 214.588 47.256 213.905 47.256C213.191 47.256 212.54 47.1493 211.953 46.936C211.367 46.712 210.865 46.408 210.449 46.024L211.569 44.776C212.284 45.3307 213.041 45.608 213.841 45.608C214.268 45.608 214.604 45.528 214.849 45.368C215.105 45.1973 215.233 44.968 215.233 44.68C215.233 44.456 215.185 44.28 215.089 44.152C214.993 44.024 214.817 43.9067 214.561 43.8C214.305 43.6827 213.905 43.5493 213.361 43.4C212.508 43.1653 211.873 42.8347 211.457 42.408C211.052 41.9707 210.849 41.432 210.849 40.792C210.849 40.312 210.988 39.88 211.265 39.496C211.543 39.112 211.932 38.8133 212.433 38.6C212.945 38.376 213.537 38.264 214.209 38.264ZM228.028 46.6C227.719 46.8133 227.367 46.9733 226.972 47.08C226.588 47.1973 226.204 47.256 225.82 47.256C224.945 47.2453 224.284 46.9947 223.836 46.504C223.388 46.0133 223.164 45.2933 223.164 44.344V40.12H221.9V38.52H223.164V36.664L225.436 36.392V38.52H227.388L227.164 40.12H225.436V44.296C225.436 44.7013 225.505 44.9947 225.644 45.176C225.783 45.3573 225.996 45.448 226.284 45.448C226.572 45.448 226.892 45.352 227.244 45.16L228.028 46.6ZM232.336 38.264C233.606 38.264 234.598 38.664 235.312 39.464C236.027 40.2533 236.384 41.352 236.384 42.76C236.384 43.656 236.219 44.4453 235.888 45.128C235.568 45.8 235.099 46.3227 234.48 46.696C233.872 47.0693 233.152 47.256 232.32 47.256C231.051 47.256 230.054 46.8613 229.328 46.072C228.614 45.272 228.256 44.168 228.256 42.76C228.256 41.864 228.416 41.08 228.736 40.408C229.067 39.7253 229.536 39.1973 230.144 38.824C230.763 38.4507 231.494 38.264 232.336 38.264ZM232.336 39.96C231.76 39.96 231.328 40.1893 231.04 40.648C230.763 41.096 230.624 41.8 230.624 42.76C230.624 43.72 230.763 44.4293 231.04 44.888C231.328 45.336 231.755 45.56 232.32 45.56C232.886 45.56 233.307 45.336 233.584 44.888C233.872 44.4293 234.016 43.72 234.016 42.76C234.016 41.8 233.878 41.096 233.6 40.648C233.323 40.1893 232.902 39.96 232.336 39.96ZM245.666 34.888C246.616 34.888 247.517 35.096 248.37 35.512L247.698 37C247.133 36.7333 246.53 36.6 245.89 36.6C245.378 36.6 245.026 36.6907 244.834 36.872C244.642 37.0533 244.546 37.352 244.546 37.768V38.52H249.266V47H246.994V40.12H244.546V47H242.274V40.12H240.962V38.52H242.274V37.704C242.274 36.8613 242.552 36.184 243.106 35.672C243.672 35.1493 244.525 34.888 245.666 34.888ZM256.239 38.264C256.985 38.264 257.567 38.4933 257.983 38.952C258.399 39.4 258.607 40.024 258.607 40.824V47H256.335V41.208C256.335 40.7493 256.255 40.4293 256.095 40.248C255.945 40.056 255.716 39.96 255.407 39.96C255.087 39.96 254.793 40.0613 254.527 40.264C254.271 40.456 254.02 40.7493 253.775 41.144V47H251.503V38.52H253.471L253.647 39.592C253.999 39.1547 254.383 38.824 254.799 38.6C255.225 38.376 255.705 38.264 256.239 38.264ZM268.112 35.144V47H266.112L265.984 45.96C265.387 46.824 264.576 47.256 263.552 47.256C262.507 47.256 261.707 46.856 261.152 46.056C260.608 45.2453 260.336 44.1467 260.336 42.76C260.336 41.8853 260.475 41.112 260.752 40.44C261.04 39.7573 261.446 39.224 261.968 38.84C262.491 38.456 263.094 38.264 263.776 38.264C264.566 38.264 265.254 38.5467 265.84 39.112V34.888L268.112 35.144ZM264.224 45.56C264.555 45.56 264.848 45.48 265.104 45.32C265.36 45.1493 265.606 44.888 265.84 44.536V40.744C265.616 40.4773 265.387 40.28 265.152 40.152C264.928 40.0133 264.667 39.944 264.368 39.944C263.846 39.944 263.435 40.1733 263.136 40.632C262.848 41.0907 262.704 41.8 262.704 42.76C262.704 43.7733 262.832 44.4933 263.088 44.92C263.355 45.3467 263.734 45.56 264.224 45.56ZM73.3014 70.6C72.992 70.8133 72.64 70.9733 72.2454 71.08C71.8614 71.1973 71.4774 71.256 71.0934 71.256C70.2187 71.2453 69.5574 70.9947 69.1094 70.504C68.6614 70.0133 68.4374 69.2933 68.4374 68.344V64.12H67.1734V62.52H68.4374V60.664L70.7094 60.392V62.52H72.6614L72.4374 64.12H70.7094V68.296C70.7094 68.7013 70.7787 68.9947 70.9174 69.176C71.056 69.3573 71.2694 69.448 71.5574 69.448C71.8454 69.448 72.1654 69.352 72.5174 69.16L73.3014 70.6ZM79.0435 62.264C79.7795 62.264 80.3555 62.4933 80.7715 62.952C81.1982 63.4 81.4115 64.024 81.4115 64.824V71H79.1395V65.208C79.1395 64.7493 79.0595 64.4293 78.8995 64.248C78.7395 64.056 78.5102 63.96 78.2115 63.96C77.6142 63.96 77.0702 64.3493 76.5795 65.128V71H74.3075V59.144L76.5795 58.904V63.48C76.9208 63.0747 77.2888 62.7707 77.6835 62.568C78.0888 62.3653 78.5422 62.264 79.0435 62.264ZM90.7411 66.568C90.7411 66.6747 90.7251 66.968 90.6931 67.448H85.3971C85.4718 68.216 85.6798 68.76 86.0211 69.08C86.3625 69.4 86.8265 69.56 87.4131 69.56C87.7758 69.56 88.1171 69.5013 88.4371 69.384C88.7571 69.2667 89.1038 69.08 89.4771 68.824L90.4211 70.104C89.4718 70.872 88.3998 71.256 87.2051 71.256C85.8718 71.256 84.8478 70.856 84.1331 70.056C83.4185 69.256 83.0611 68.1733 83.0611 66.808C83.0611 65.944 83.2105 65.1707 83.5091 64.488C83.8185 63.7947 84.2611 63.2507 84.8371 62.856C85.4238 62.4613 86.1171 62.264 86.9171 62.264C88.1225 62.264 89.0611 62.6427 89.7331 63.4C90.4051 64.1573 90.7411 65.2133 90.7411 66.568ZM88.4851 65.928C88.4851 64.52 87.9785 63.816 86.9651 63.816C86.4958 63.816 86.1278 63.992 85.8611 64.344C85.6051 64.6853 85.4505 65.2453 85.3971 66.024H88.4851V65.928ZM101.028 62.264C101.764 62.264 102.34 62.4933 102.756 62.952C103.183 63.4 103.396 64.024 103.396 64.824V71H101.124V65.208C101.124 64.7493 101.044 64.4293 100.884 64.248C100.724 64.056 100.495 63.96 100.196 63.96C99.5985 63.96 99.0545 64.3493 98.5639 65.128V71H96.2919V59.144L98.5639 58.904V63.48C98.9052 63.0747 99.2732 62.7707 99.6679 62.568C100.073 62.3653 100.527 62.264 101.028 62.264ZM112.502 71H110.534L110.422 69.864C110.123 70.3333 109.76 70.6853 109.334 70.92C108.907 71.144 108.411 71.256 107.846 71.256C107.078 71.256 106.491 71.0267 106.086 70.568C105.68 70.0987 105.478 69.448 105.478 68.616V62.52H107.75V68.328C107.75 68.776 107.824 69.096 107.974 69.288C108.123 69.4693 108.358 69.56 108.678 69.56C109.286 69.56 109.803 69.192 110.23 68.456V62.52H112.502V71ZM123.913 62.264C124.585 62.264 125.124 62.4933 125.529 62.952C125.945 63.4107 126.153 64.0347 126.153 64.824V71H123.881V65.208C123.881 64.376 123.604 63.96 123.049 63.96C122.75 63.96 122.489 64.056 122.265 64.248C122.041 64.44 121.812 64.7387 121.577 65.144V71H119.305V65.208C119.305 64.376 119.028 63.96 118.473 63.96C118.174 63.96 117.913 64.0613 117.689 64.264C117.465 64.456 117.241 64.7493 117.017 65.144V71H114.745V62.52H116.713L116.889 63.576C117.209 63.1493 117.566 62.824 117.961 62.6C118.366 62.376 118.83 62.264 119.353 62.264C119.833 62.264 120.249 62.3867 120.601 62.632C120.953 62.8667 121.209 63.2027 121.369 63.64C121.721 63.1813 122.1 62.84 122.505 62.616C122.921 62.3813 123.39 62.264 123.913 62.264ZM134.788 68.648C134.788 68.9787 134.836 69.224 134.932 69.384C135.028 69.5333 135.188 69.6453 135.411 69.72L134.932 71.224C134.43 71.1813 134.02 71.064 133.7 70.872C133.39 70.68 133.15 70.3813 132.98 69.976C132.425 70.8293 131.577 71.256 130.436 71.256C129.593 71.256 128.921 71.016 128.42 70.536C127.929 70.0453 127.684 69.4107 127.684 68.632C127.684 67.704 128.02 66.9947 128.692 66.504C129.364 66.0133 130.329 65.768 131.588 65.768H132.564V65.352C132.564 64.8293 132.446 64.4667 132.212 64.264C131.977 64.0613 131.588 63.96 131.044 63.96C130.446 63.96 129.7 64.1093 128.804 64.408L128.292 62.888C129.348 62.472 130.393 62.264 131.428 62.264C132.58 62.264 133.428 62.5147 133.972 63.016C134.516 63.5067 134.788 64.2427 134.788 65.224V68.648ZM131.06 69.624C131.7 69.624 132.201 69.3093 132.564 68.68V67.064H131.812C130.585 67.064 129.972 67.5227 129.972 68.44C129.972 68.8133 130.062 69.1067 130.244 69.32C130.436 69.5227 130.708 69.624 131.06 69.624ZM141.794 62.264C142.54 62.264 143.122 62.4933 143.538 62.952C143.954 63.4 144.161 64.024 144.161 64.824V71H141.89V65.208C141.89 64.7493 141.81 64.4293 141.65 64.248C141.5 64.056 141.271 63.96 140.962 63.96C140.642 63.96 140.348 64.0613 140.082 64.264C139.826 64.456 139.575 64.7493 139.33 65.144V71H137.058V62.52H139.026L139.202 63.592C139.554 63.1547 139.938 62.824 140.354 62.6C140.78 62.376 141.26 62.264 141.794 62.264ZM145.971 66.888V65.096H150.931V66.888H145.971ZM163.431 62.52L161.623 71H158.855L157.639 64.552L156.423 71H153.687L151.831 62.52H154.119L155.159 69.32L156.567 62.52H158.839L160.103 69.32L161.255 62.52H163.431ZM169.067 62.28C169.323 62.28 169.605 62.3227 169.915 62.408L169.531 64.6C169.232 64.5253 168.981 64.488 168.779 64.488C168.277 64.488 167.888 64.664 167.611 65.016C167.333 65.368 167.115 65.9013 166.955 66.616V71H164.683V62.52H166.651L166.859 64.168C167.061 63.5707 167.355 63.1067 167.739 62.776C168.133 62.4453 168.576 62.28 169.067 62.28ZM173.314 62.52V71H171.042V62.52H173.314ZM172.162 58.152C172.567 58.152 172.898 58.28 173.154 58.536C173.421 58.7813 173.554 59.096 173.554 59.48C173.554 59.864 173.421 60.184 173.154 60.44C172.898 60.6853 172.567 60.808 172.162 60.808C171.757 60.808 171.426 60.6853 171.17 60.44C170.914 60.184 170.786 59.864 170.786 59.48C170.786 59.096 170.914 58.7813 171.17 58.536C171.426 58.28 171.757 58.152 172.162 58.152ZM180.63 70.6C180.32 70.8133 179.968 70.9733 179.574 71.08C179.19 71.1973 178.806 71.256 178.422 71.256C177.547 71.2453 176.886 70.9947 176.438 70.504C175.99 70.0133 175.766 69.2933 175.766 68.344V64.12H174.502V62.52H175.766V60.664L178.038 60.392V62.52H179.99L179.766 64.12H178.038V68.296C178.038 68.7013 178.107 68.9947 178.246 69.176C178.384 69.3573 178.598 69.448 178.886 69.448C179.174 69.448 179.494 69.352 179.846 69.16L180.63 70.6ZM186.708 70.6C186.398 70.8133 186.046 70.9733 185.652 71.08C185.268 71.1973 184.884 71.256 184.5 71.256C183.625 71.2453 182.964 70.9947 182.516 70.504C182.068 70.0133 181.844 69.2933 181.844 68.344V64.12H180.58V62.52H181.844V60.664L184.116 60.392V62.52H186.068L185.844 64.12H184.116V68.296C184.116 68.7013 184.185 68.9947 184.324 69.176C184.462 69.3573 184.676 69.448 184.964 69.448C185.252 69.448 185.572 69.352 185.924 69.16L186.708 70.6ZM194.616 66.568C194.616 66.6747 194.6 66.968 194.568 67.448H189.272C189.347 68.216 189.555 68.76 189.896 69.08C190.237 69.4 190.701 69.56 191.288 69.56C191.651 69.56 191.992 69.5013 192.312 69.384C192.632 69.2667 192.979 69.08 193.352 68.824L194.296 70.104C193.347 70.872 192.275 71.256 191.08 71.256C189.747 71.256 188.723 70.856 188.008 70.056C187.293 69.256 186.936 68.1733 186.936 66.808C186.936 65.944 187.085 65.1707 187.384 64.488C187.693 63.7947 188.136 63.2507 188.712 62.856C189.299 62.4613 189.992 62.264 190.792 62.264C191.997 62.264 192.936 62.6427 193.608 63.4C194.28 64.1573 194.616 65.2133 194.616 66.568ZM192.36 65.928C192.36 64.52 191.853 63.816 190.84 63.816C190.371 63.816 190.003 63.992 189.736 64.344C189.48 64.6853 189.325 65.2453 189.272 66.024H192.36V65.928ZM200.997 62.264C201.743 62.264 202.325 62.4933 202.741 62.952C203.157 63.4 203.365 64.024 203.365 64.824V71H201.093V65.208C201.093 64.7493 201.013 64.4293 200.853 64.248C200.703 64.056 200.474 63.96 200.165 63.96C199.845 63.96 199.551 64.0613 199.285 64.264C199.029 64.456 198.778 64.7493 198.533 65.144V71H196.261V62.52H198.229L198.405 63.592C198.757 63.1547 199.141 62.824 199.557 62.6C199.983 62.376 200.463 62.264 200.997 62.264ZM215.913 68.648C215.913 68.9787 215.961 69.224 216.057 69.384C216.153 69.5333 216.313 69.6453 216.536 69.72L216.057 71.224C215.555 71.1813 215.145 71.064 214.825 70.872C214.515 70.68 214.275 70.3813 214.105 69.976C213.55 70.8293 212.702 71.256 211.561 71.256C210.718 71.256 210.046 71.016 209.545 70.536C209.054 70.0453 208.809 69.4107 208.809 68.632C208.809 67.704 209.145 66.9947 209.817 66.504C210.489 66.0133 211.454 65.768 212.713 65.768H213.689V65.352C213.689 64.8293 213.571 64.4667 213.337 64.264C213.102 64.0613 212.713 63.96 212.169 63.96C211.571 63.96 210.825 64.1093 209.929 64.408L209.417 62.888C210.473 62.472 211.518 62.264 212.553 62.264C213.705 62.264 214.553 62.5147 215.097 63.016C215.641 63.5067 215.913 64.2427 215.913 65.224V68.648ZM212.185 69.624C212.825 69.624 213.326 69.3093 213.689 68.68V67.064H212.937C211.71 67.064 211.097 67.5227 211.097 68.44C211.097 68.8133 211.187 69.1067 211.369 69.32C211.561 69.5227 211.833 69.624 212.185 69.624ZM222.919 62.264C223.665 62.264 224.247 62.4933 224.663 62.952C225.079 63.4 225.286 64.024 225.286 64.824V71H223.015V65.208C223.015 64.7493 222.935 64.4293 222.775 64.248C222.625 64.056 222.396 63.96 222.087 63.96C221.767 63.96 221.473 64.0613 221.207 64.264C220.951 64.456 220.7 64.7493 220.455 65.144V71H218.183V62.52H220.151L220.327 63.592C220.679 63.1547 221.063 62.824 221.479 62.6C221.905 62.376 222.385 62.264 222.919 62.264ZM230.264 62.264C231.459 62.264 232.483 62.6053 233.336 63.288L232.472 64.584C231.757 64.136 231.053 63.912 230.36 63.912C229.987 63.912 229.699 63.9813 229.496 64.12C229.293 64.2587 229.192 64.4453 229.192 64.68C229.192 64.8507 229.235 64.9947 229.32 65.112C229.416 65.2293 229.587 65.3413 229.832 65.448C230.088 65.5547 230.467 65.6827 230.968 65.832C231.864 66.0773 232.531 66.408 232.968 66.824C233.405 67.2293 233.624 67.7893 233.624 68.504C233.624 69.0693 233.459 69.56 233.128 69.976C232.808 70.392 232.371 70.712 231.816 70.936C231.261 71.1493 230.643 71.256 229.96 71.256C229.245 71.256 228.595 71.1493 228.008 70.936C227.421 70.712 226.92 70.408 226.504 70.024L227.624 68.776C228.339 69.3307 229.096 69.608 229.896 69.608C230.323 69.608 230.659 69.528 230.904 69.368C231.16 69.1973 231.288 68.968 231.288 68.68C231.288 68.456 231.24 68.28 231.144 68.152C231.048 68.024 230.872 67.9067 230.616 67.8C230.36 67.6827 229.96 67.5493 229.416 67.4C228.563 67.1653 227.928 66.8347 227.512 66.408C227.107 65.9707 226.904 65.432 226.904 64.792C226.904 64.312 227.043 63.88 227.32 63.496C227.597 63.112 227.987 62.8133 228.488 62.6C229 62.376 229.592 62.264 230.264 62.264ZM245.587 62.52L243.779 71H241.011L239.795 64.552L238.579 71H235.843L233.987 62.52H236.275L237.315 69.32L238.723 62.52H240.995L242.259 69.32L243.411 62.52H245.587ZM254.007 66.568C254.007 66.6747 253.991 66.968 253.959 67.448H248.663C248.737 68.216 248.945 68.76 249.287 69.08C249.628 69.4 250.092 69.56 250.679 69.56C251.041 69.56 251.383 69.5013 251.703 69.384C252.023 69.2667 252.369 69.08 252.743 68.824L253.687 70.104C252.737 70.872 251.665 71.256 250.471 71.256C249.137 71.256 248.113 70.856 247.399 70.056C246.684 69.256 246.327 68.1733 246.327 66.808C246.327 65.944 246.476 65.1707 246.775 64.488C247.084 63.7947 247.527 63.2507 248.103 62.856C248.689 62.4613 249.383 62.264 250.183 62.264C251.388 62.264 252.327 62.6427 252.999 63.4C253.671 64.1573 254.007 65.2133 254.007 66.568ZM251.751 65.928C251.751 64.52 251.244 63.816 250.231 63.816C249.761 63.816 249.393 63.992 249.127 64.344C248.871 64.6853 248.716 65.2453 248.663 66.024H251.751V65.928ZM260.035 62.28C260.291 62.28 260.574 62.3227 260.883 62.408L260.499 64.6C260.201 64.5253 259.95 64.488 259.747 64.488C259.246 64.488 258.857 64.664 258.579 65.016C258.302 65.368 258.083 65.9013 257.923 66.616V71H255.651V62.52H257.619L257.827 64.168C258.03 63.5707 258.323 63.1067 258.707 62.776C259.102 62.4453 259.545 62.28 260.035 62.28Z" fill="#F5F5F5"/>
<g filter="url(#filter0_d_24_3703)">
<rect x="30" y="98" width="268" height="256" rx="8" fill="#1F1F1F" shape-rendering="crispEdges"/>
<rect x="50" y="118" width="228" height="12" rx="6" fill="#F5F5F5" fill-opacity="0.3"/>
<rect x="50" y="140" width="163" height="12" rx="6" fill="#F5F5F5" fill-opacity="0.3"/>
<rect x="50" y="182" width="228" height="44" rx="8" fill="white" fill-opacity="0.05"/>
<path d="M67.024 209L66.4 206.52H62.928L62.304 209H59.856L63.264 197.928H66.128L69.52 209H67.024ZM63.376 204.776H65.952L64.656 199.672L63.376 204.776ZM71.3884 206.52C71.7724 206.52 72.0977 206.653 72.3644 206.92C72.631 207.187 72.7644 207.507 72.7644 207.88C72.7644 208.253 72.631 208.579 72.3644 208.856C72.0977 209.123 71.7724 209.256 71.3884 209.256C71.015 209.256 70.695 209.123 70.4284 208.856C70.1617 208.579 70.0284 208.253 70.0284 207.88C70.0284 207.507 70.1617 207.187 70.4284 206.92C70.695 206.653 71.015 206.52 71.3884 206.52Z" fill="#F5F5F5" fill-opacity="0.7"/>
<path d="M164.197 195.008C165.285 195.008 166.213 195.192 166.981 195.56C167.749 195.912 168.325 196.392 168.709 197C169.093 197.592 169.285 198.24 169.285 198.944C169.285 199.6 169.173 200.16 168.949 200.624C168.725 201.088 168.453 201.464 168.133 201.752C167.813 202.024 167.389 202.344 166.861 202.712C166.221 203.144 165.741 203.544 165.421 203.912C165.117 204.264 164.965 204.728 164.965 205.304V206.024H161.821V205.184C161.821 204.448 161.933 203.824 162.157 203.312C162.397 202.8 162.677 202.392 162.997 202.088C163.333 201.784 163.749 201.464 164.245 201.128C164.757 200.792 165.125 200.496 165.349 200.24C165.589 199.984 165.709 199.656 165.709 199.256C165.709 198.76 165.541 198.384 165.205 198.128C164.885 197.856 164.437 197.72 163.861 197.72C162.773 197.72 161.797 198.224 160.933 199.232L158.725 197.528C159.429 196.712 160.229 196.088 161.125 195.656C162.021 195.224 163.045 195.008 164.197 195.008ZM163.429 208.28C164.005 208.28 164.493 208.48 164.893 208.88C165.293 209.28 165.493 209.76 165.493 210.32C165.493 210.88 165.293 211.368 164.893 211.784C164.493 212.184 164.005 212.384 163.429 212.384C162.853 212.384 162.365 212.184 161.965 211.784C161.581 211.384 161.389 210.896 161.389 210.32C161.389 209.76 161.581 209.28 161.965 208.88C162.365 208.48 162.853 208.28 163.429 208.28Z" fill="#F5F5F5"/>
<rect x="50" y="236" width="228" height="44" rx="8" fill="white" fill-opacity="0.05"/>
<path d="M66.832 257.144C67.5787 257.283 68.1813 257.555 68.64 257.96C69.1093 258.355 69.344 258.963 69.344 259.784C69.344 260.947 68.928 261.773 68.096 262.264C67.264 262.755 66.1067 263 64.624 263H61.168V251.928H64.192C65.7067 251.928 66.864 252.152 67.664 252.6C68.464 253.048 68.864 253.768 68.864 254.76C68.864 255.411 68.6667 255.939 68.272 256.344C67.888 256.739 67.408 257.005 66.832 257.144ZM63.52 253.624V256.424H64.672C65.248 256.424 65.6907 256.307 66 256.072C66.3093 255.827 66.464 255.459 66.464 254.968C66.464 254.477 66.2987 254.131 65.968 253.928C65.6373 253.725 65.12 253.624 64.416 253.624H63.52ZM64.64 261.256C65.376 261.256 65.936 261.149 66.32 260.936C66.704 260.712 66.896 260.296 66.896 259.688C66.896 258.579 66.2133 258.024 64.848 258.024H63.52V261.256H64.64ZM71.7478 260.52C72.1318 260.52 72.4571 260.653 72.7238 260.92C72.9904 261.187 73.1238 261.507 73.1238 261.88C73.1238 262.253 72.9904 262.579 72.7238 262.856C72.4571 263.123 72.1318 263.256 71.7478 263.256C71.3744 263.256 71.0544 263.123 70.7878 262.856C70.5211 262.579 70.3878 262.253 70.3878 261.88C70.3878 261.507 70.5211 261.187 70.7878 260.92C71.0544 260.653 71.3744 260.52 71.7478 260.52Z" fill="#F5F5F5" fill-opacity="0.7"/>
<path d="M164.197 249.008C165.285 249.008 166.213 249.192 166.981 249.56C167.749 249.912 168.325 250.392 168.709 251C169.093 251.592 169.285 252.24 169.285 252.944C169.285 253.6 169.173 254.16 168.949 254.624C168.725 255.088 168.453 255.464 168.133 255.752C167.813 256.024 167.389 256.344 166.861 256.712C166.221 257.144 165.741 257.544 165.421 257.912C165.117 258.264 164.965 258.728 164.965 259.304V260.024H161.821V259.184C161.821 258.448 161.933 257.824 162.157 257.312C162.397 256.8 162.677 256.392 162.997 256.088C163.333 255.784 163.749 255.464 164.245 255.128C164.757 254.792 165.125 254.496 165.349 254.24C165.589 253.984 165.709 253.656 165.709 253.256C165.709 252.76 165.541 252.384 165.205 252.128C164.885 251.856 164.437 251.72 163.861 251.72C162.773 251.72 161.797 252.224 160.933 253.232L158.725 251.528C159.429 250.712 160.229 250.088 161.125 249.656C162.021 249.224 163.045 249.008 164.197 249.008ZM163.429 262.28C164.005 262.28 164.493 262.48 164.893 262.88C165.293 263.28 165.493 263.76 165.493 264.32C165.493 264.88 165.293 265.368 164.893 265.784C164.493 266.184 164.005 266.384 163.429 266.384C162.853 266.384 162.365 266.184 161.965 265.784C161.581 265.384 161.389 264.896 161.389 264.32C161.389 263.76 161.581 263.28 161.965 262.88C162.365 262.48 162.853 262.28 163.429 262.28Z" fill="#F5F5F5"/>
<rect x="50" y="290" width="228" height="44" rx="8" fill="white" fill-opacity="0.05"/>
<path d="M65.536 305.672C66.2293 305.672 66.832 305.773 67.344 305.976C67.856 306.168 68.3573 306.467 68.848 306.872L67.68 308.232C67.04 307.709 66.368 307.448 65.664 307.448C64.8747 307.448 64.2453 307.773 63.776 308.424C63.3173 309.064 63.088 310.072 63.088 311.448C63.088 312.792 63.3173 313.789 63.776 314.44C64.2453 315.08 64.88 315.4 65.68 315.4C66.096 315.4 66.4747 315.325 66.816 315.176C67.1573 315.016 67.5147 314.792 67.888 314.504L68.976 315.864C68.5813 316.269 68.0907 316.605 67.504 316.872C66.928 317.128 66.288 317.256 65.584 317.256C64.592 317.256 63.7227 317.032 62.976 316.584C62.2293 316.136 61.648 315.48 61.232 314.616C60.816 313.741 60.608 312.685 60.608 311.448C60.608 310.243 60.8213 309.208 61.248 308.344C61.6747 307.469 62.2613 306.808 63.008 306.36C63.7547 305.901 64.5973 305.672 65.536 305.672ZM71.0446 314.52C71.4286 314.52 71.754 314.653 72.0206 314.92C72.2873 315.187 72.4206 315.507 72.4206 315.88C72.4206 316.253 72.2873 316.579 72.0206 316.856C71.754 317.123 71.4286 317.256 71.0446 317.256C70.6713 317.256 70.3513 317.123 70.0846 316.856C69.818 316.579 69.6846 316.253 69.6846 315.88C69.6846 315.507 69.818 315.187 70.0846 314.92C70.3513 314.653 70.6713 314.52 71.0446 314.52Z" fill="#F5F5F5" fill-opacity="0.7"/>
<path d="M164.197 303.008C165.285 303.008 166.213 303.192 166.981 303.56C167.749 303.912 168.325 304.392 168.709 305C169.093 305.592 169.285 306.24 169.285 306.944C169.285 307.6 169.173 308.16 168.949 308.624C168.725 309.088 168.453 309.464 168.133 309.752C167.813 310.024 167.389 310.344 166.861 310.712C166.221 311.144 165.741 311.544 165.421 311.912C165.117 312.264 164.965 312.728 164.965 313.304V314.024H161.821V313.184C161.821 312.448 161.933 311.824 162.157 311.312C162.397 310.8 162.677 310.392 162.997 310.088C163.333 309.784 163.749 309.464 164.245 309.128C164.757 308.792 165.125 308.496 165.349 308.24C165.589 307.984 165.709 307.656 165.709 307.256C165.709 306.76 165.541 306.384 165.205 306.128C164.885 305.856 164.437 305.72 163.861 305.72C162.773 305.72 161.797 306.224 160.933 307.232L158.725 305.528C159.429 304.712 160.229 304.088 161.125 303.656C162.021 303.224 163.045 303.008 164.197 303.008ZM163.429 316.28C164.005 316.28 164.493 316.48 164.893 316.88C165.293 317.28 165.493 317.76 165.493 318.32C165.493 318.88 165.293 319.368 164.893 319.784C164.493 320.184 164.005 320.384 163.429 320.384C162.853 320.384 162.365 320.184 161.965 319.784C161.581 319.384 161.389 318.896 161.389 318.32C161.389 317.76 161.581 317.28 161.965 316.88C162.365 316.48 162.853 316.28 163.429 316.28Z" fill="#F5F5F5"/>
</g>
<defs>
<filter id="filter0_d_24_3703" x="26" y="94" width="276" height="264" filterUnits="userSpaceOnUse" color-interpolation-filters="sRGB">
<feFlood flood-opacity="0" result="BackgroundImageFix"/>
<feColorMatrix in="SourceAlpha" type="matrix" values="0 0 0 0 0 0 0 0 0 0 0 0 0 0 0 0 0 0 127 0" result="hardAlpha"/>
<feOffset/>
<feGaussianBlur stdDeviation="2"/>
<feComposite in2="hardAlpha" operator="out"/>
<feColorMatrix type="matrix" values="0 0 0 0 0.960784 0 0 0 0 0.960784 0 0 0 0 0.960784 0 0 0 0.2 0"/>
<feBlend mode="normal" in2="BackgroundImageFix" result="effect1_dropShadow_24_3703"/>
<feBlend mode="normal" in="SourceGraphic" in2="effect1_dropShadow_24_3703" result="shape"/>
</filter>
</defs>
</svg>
