<svg width="1000" height="778" viewBox="0 0 1000 778" fill="none" xmlns="http://www.w3.org/2000/svg">
<path d="M146.067 4.49138C146.067 2.01088 144.047 -0.0286843 141.586 0.290744C120.721 2.99838 100.217 24.5873 81.4634 63.6874C61.3691 105.584 43.8236 166.462 30.1843 241.614C16.5451 316.765 7.17763 404.175 2.80664 497.081C-1.56434 589.987 -0.821692 685.899 4.97714 777.397L112.519 655.566C133.849 631.403 164.538 617.561 196.781 617.561H235.629C235.843 617.561 236.057 617.561 236.272 617.561H513.821C521.793 617.561 529.168 613.34 533.202 606.469L606.222 482.115C612.534 471.364 608.878 457.534 598.076 451.301L494.002 391.254C480.289 383.343 472.083 368.755 470.154 353.049C466.006 319.271 454.561 286.548 436.329 257.249C407.502 210.922 363.493 176.018 311.8 158.483C260.108 140.947 203.931 141.866 152.84 161.082C152.663 161.149 152.486 161.215 152.309 161.282C149.318 162.416 146.067 160.238 146.067 157.041L146.067 4.49138Z" fill="#A771FF"/>
<path d="M578.799 617.561H932.584C969.817 617.561 1000 587.398 1000 550.191V67.3703C1000 30.1627 969.817 0 932.584 0H190.787C190.936 1.49969 191.011 2.999 191.011 4.49109V44.9135H932.584C944.995 44.9135 955.056 54.9677 955.056 67.3703V550.191C955.056 562.593 944.995 572.647 932.584 572.647H605.172L578.799 617.561Z" fill="#A771FF"/>
</svg>
