<svg width="1000" height="1000" viewBox="0 0 1000 1000" fill="none" xmlns="http://www.w3.org/2000/svg">
<path d="M213.854 222.634C213.854 220.65 212.238 219.018 210.269 219.274C193.577 221.44 177.173 238.711 162.171 269.991C146.095 303.508 132.059 352.211 121.147 412.332C110.236 472.453 102.742 542.381 99.2453 616.706C95.7485 691.031 96.3426 767.76 100.982 840.959L187.016 743.494C204.079 724.163 228.63 713.09 254.425 713.09H285.503C285.675 713.09 285.846 713.09 286.017 713.09H508.057C514.434 713.09 520.334 709.713 523.562 704.217L581.977 604.733C587.027 596.133 584.102 585.068 575.461 580.082L492.201 532.045C481.231 525.715 474.666 514.045 473.123 501.481C469.805 474.458 460.649 448.28 446.063 424.84C423.001 387.779 387.794 359.855 346.44 345.827C305.086 331.799 260.144 332.534 219.272 347.907C219.13 347.96 218.989 348.013 218.848 348.067C216.454 348.974 213.854 347.232 213.854 344.674L213.854 222.634Z" fill="#8252D1"/>
<path d="M560.04 713.09H843.067C872.854 713.09 897 688.96 897 659.194V272.937C897 243.171 872.854 219.041 843.067 219.041H249.63C249.749 220.241 249.809 221.44 249.809 222.634V254.972H843.067C852.996 254.972 861.045 263.015 861.045 272.937V659.194C861.045 669.116 852.996 677.159 843.067 677.159H581.138L560.04 713.09Z" fill="#8252D1"/>
</svg>
