<svg width="96" height="96" viewBox="0 0 96 96" fill="none" xmlns="http://www.w3.org/2000/svg">
<path d="M62 56L82 76L76 82L56 62V58.84L54.92 57.72C50.2161 61.7755 44.2108 64.0044 38 64C31.1044 64 24.4912 61.2607 19.6152 56.3848C14.7393 51.5088 12 44.8956 12 38C12 31.1044 14.7393 24.4912 19.6152 19.6152C24.4912 14.7393 31.1044 12 38 12C44.8956 12 51.5088 14.7393 56.3848 19.6152C61.2607 24.4912 64 31.1044 64 38C64 44.44 61.64 50.36 57.72 54.92L58.84 56H62ZM38 18L35.8 18.12C34.84 20.2 33.36 23.72 32.28 28H43.72C42.64 23.72 41.16 20.2 40.2 18.12C39.48 18 38.76 18 38 18ZM55.32 28C52.9412 23.8384 49.1316 20.6827 44.6 19.12C45.56 21.24 46.8 24.32 47.72 28H55.32ZM20.68 28H28.28C29.2 24.32 30.44 21.24 31.4 19.12C26.8684 20.6827 23.0588 23.8384 20.68 28ZM18 38C18 40 18.32 42.12 18.92 44H27.48L27 38L27.48 32H18.92C18.32 33.88 18 36 18 38ZM57.08 44C57.68 42.12 58 40 58 38C58 36 57.68 33.88 57.08 32H48.52C49.1569 35.9746 49.1569 40.0254 48.52 44H57.08ZM31.48 32L31 38L31.48 44H44.52C45.1569 40.0254 45.1569 35.9746 44.52 32H31.48ZM38 58C38.72 58 39.44 58 40.12 57.88C41.12 55.8 42.64 52.28 43.72 48H32.28C33.36 52.28 34.88 55.8 35.88 57.88L38 58ZM55.32 48H47.72C46.8 51.68 45.56 54.76 44.6 56.88C49.1316 55.3173 52.9412 52.1616 55.32 48ZM20.68 48C23.0588 52.1616 26.8684 55.3173 31.4 56.88C30.44 54.76 29.2 51.68 28.28 48H20.68Z" fill="#F5F5F5"/>
</svg>
