<svg width="96" height="96" viewBox="0 0 96 96" fill="none" xmlns="http://www.w3.org/2000/svg">
<path d="M48 8C50.1217 8 52.1566 8.84285 53.6569 10.3431C55.1571 11.8434 56 13.8783 56 16C56 18.96 54.4 21.56 52 22.92V28H56C63.4261 28 70.548 30.95 75.799 36.201C81.05 41.452 84 48.5739 84 56H88C89.0609 56 90.0783 56.4214 90.8284 57.1716C91.5786 57.9217 92 58.9391 92 60V72C92 73.0609 91.5786 74.0783 90.8284 74.8284C90.0783 75.5786 89.0609 76 88 76H84V80C84 82.1217 83.1571 84.1566 81.6569 85.6569C80.1566 87.1571 78.1217 88 76 88H20C17.8783 88 15.8434 87.1571 14.3431 85.6569C12.8429 84.1566 12 82.1217 12 80V76H8C6.93913 76 5.92172 75.5786 5.17157 74.8284C4.42143 74.0783 4 73.0609 4 72V60C4 58.9391 4.42143 57.9217 5.17157 57.1716C5.92172 56.4214 6.93913 56 8 56H12C12 48.5739 14.95 41.452 20.201 36.201C25.452 30.95 32.5739 28 40 28H44V22.92C41.6 21.56 40 18.96 40 16C40 13.8783 40.8429 11.8434 42.3431 10.3431C43.8434 8.84285 45.8783 8 48 8ZM30 52C27.3478 52 24.8043 53.0536 22.9289 54.9289C21.0536 56.8043 20 59.3478 20 62C20 64.6522 21.0536 67.1957 22.9289 69.0711C24.8043 70.9464 27.3478 72 30 72C32.6522 72 35.1957 70.9464 37.0711 69.0711C38.9464 67.1957 40 64.6522 40 62C40 59.3478 38.9464 56.8043 37.0711 54.9289C35.1957 53.0536 32.6522 52 30 52ZM66 52C63.3478 52 60.8043 53.0536 58.9289 54.9289C57.0536 56.8043 56 59.3478 56 62C56 64.6522 57.0536 67.1957 58.9289 69.0711C60.8043 70.9464 63.3478 72 66 72C68.6522 72 71.1957 70.9464 73.0711 69.0711C74.9464 67.1957 76 64.6522 76 62C76 59.3478 74.9464 56.8043 73.0711 54.9289C71.1957 53.0536 68.6522 52 66 52Z" fill="#F5F5F5"/>
</svg>
