<svg width="96" height="96" viewBox="0 0 96 96" fill="none" xmlns="http://www.w3.org/2000/svg">
<path d="M85.32 51.64C85.68 57.84 82.84 63.8 77.76 67.44L80.84 73.4C81.76 75.2 81.88 77.32 81.08 79.2C80.32 81.08 78.76 82.56 76.84 83.2L73.68 84.2C72.3642 84.6433 70.9437 84.6699 69.6122 84.2762C68.2807 83.8825 67.1031 83.0876 66.24 82L57.76 72C54.2 71.4 50.84 69.88 48 67.6C46 68.2 44 68.52 42 68.52C38.48 68.52 34.96 67.44 32 65.36C29.88 66 27.72 66.28 25.52 66.24C22.36 66.28 19.24 65.64 16.32 64.44C13.5093 63.186 11.1077 61.1672 9.38911 58.614C7.67048 56.0608 6.70403 53.076 6.59998 50C6.27998 47.12 6.75998 44.2 7.99998 41.56C6.83998 38.56 6.71998 35.28 7.71998 32.24C9.19998 28.44 12 25.28 15.48 23.28C17.8 16.52 24.32 12 31.48 12.48C37.88 6.48004 47.68 5.84004 54.8 11C56.48 10.56 58.24 10.32 60 10.32C65.44 10.2 70.6 12.6 74 16.88C82.16 19 88 26.28 88.32 34.76C88.52 39.2 87.32 43.56 84.88 47.28C85.16 48.72 85.32 50.16 85.32 51.64ZM65.32 46C67.6 46.28 69.4 48 69.4 50.28C69.4 51.3409 68.9786 52.3583 68.2284 53.1085C67.4783 53.8586 66.4609 54.28 65.4 54.28H62.88C61.6 57.88 59.36 61.04 56.4 63.44C57.4 63.8 58.44 64 59.48 64.28C80 64 77.6 51.48 77.6 51.28C77.4938 48.5324 76.3006 45.9395 74.2827 44.0717C72.2648 42.2038 69.5876 41.214 66.84 41.32C65.7791 41.32 64.7617 40.8986 64.0116 40.1485C63.2614 39.3983 62.84 38.3809 62.84 37.32C62.84 36.2592 63.2614 35.2418 64.0116 34.4916C64.7617 33.7415 65.7791 33.32 66.84 33.32C71.76 33.44 76.48 35.28 80.16 38.52C80.36 37.36 80.48 36.16 80.48 34.96C80.24 30 78 25.68 69 24.84C64 13 51.4 19.56 51.4 23.24C51.28 24.16 52.24 26.12 52.4 26.24C53.4609 26.24 54.4783 26.6615 55.2284 27.4116C55.9786 28.1618 56.4 29.1792 56.4 30.24C56.4 32.44 54.6 34.24 52.4 34.24C50.28 34.16 48.28 33.36 46.68 32C44.76 33.24 42.56 34 40.28 34.24C38 34.44 36.12 32.84 36 30.64C35.9263 30.1175 35.9602 29.5855 36.0996 29.0765C36.2389 28.5676 36.4809 28.0925 36.8105 27.6805C37.1402 27.2684 37.5505 26.9281 38.0165 26.6804C38.4824 26.4327 38.994 26.2828 39.52 26.24C40.16 26.16 43.28 25.68 43.28 23.16C43.28 20.52 44.28 18 46 16C42.32 15 38.36 16.32 34.36 21.16C27 20 24 21 21.8 28.8C18 30.68 16 32 15.12 36C19.44 35.12 23.88 35.48 28 37C30 37.76 31.12 40 30.36 42.16C29.6 44.24 27.28 45.28 25.2 44.52C22.28 43.24 19 43.16 16 44.28C14.72 45.36 14.72 47.6 14.72 49.36C14.72 52.32 16.2 55.08 18.72 56.68C20.84 57.76 23.2 58.32 25.56 58.28C24.96 57.24 24.44 56.16 24 55.04C23.6851 54.0123 23.781 52.9026 24.2676 51.9441C24.7541 50.9857 25.5934 50.2533 26.6089 49.901C27.6244 49.5487 28.7369 49.6039 29.7125 50.0551C30.6881 50.5062 31.4507 51.3181 31.84 52.32C33.44 56.88 37.52 60 42.32 60.52C47.8 60.24 52.68 57 55.08 52C56 46.48 60.44 46 65.32 46ZM73.32 75.88L70.84 70.68L68 71.32L72 76.32L73.32 75.88ZM54.72 41.44C54.7548 40.4182 54.3969 39.4218 53.72 38.6556C53.043 37.8894 52.0983 37.4115 51.08 37.32C48.24 37.16 45.48 38.12 43.36 40C41.08 42.32 39.88 45.52 40 48.76C40 49.8209 40.4214 50.8383 41.1716 51.5885C41.9217 52.3386 42.9391 52.76 44 52.76C46.28 52.76 48 50.96 48 48.76C48 47.68 48.28 46.6 48.92 45.72C49.4 45.32 50 45.12 50.64 45.12C52.84 45.24 54.72 43.6 54.72 41.44Z" fill="#F5F5F5"/>
</svg>
